<?xml version="1.0" encoding="UTF-8" standalone="no"?>
<svg width="1013px" height="260px" viewBox="0 0 1013 260" version="1.1" xmlns="http://www.w3.org/2000/svg" xmlns:xlink="http://www.w3.org/1999/xlink" xmlns:sketch="http://www.bohemiancoding.com/sketch/ns">
    <!-- Generator: Sketch 3.1.1 (8761) - http://www.bohemiancoding.com/sketch -->
    <title>Artboard 5</title>
    <desc>Created with Sketch.</desc>
    <defs></defs>
    <g id="Page-1" stroke="none" stroke-width="1" fill="none" fill-rule="evenodd" sketch:type="MSPage">
        <g id="Artboard-5" sketch:type="MSArtboardGroup" fill="#1D5CAA">
            <path d="M948.289018,192.309688 C912.212289,192.309688 884.027825,161.775844 884.027825,128.302156 C884.027825,89.1738961 915.820381,62.4852727 948.289018,62.4852727 C984.816234,62.4852727 1013.0014,93.4714545 1013.0014,127.397481 C1013.0014,161.097688 985.26742,192.309688 948.289018,192.309688 L948.289018,192.309688 Z M948.514611,76.7342597 C925.966481,76.7342597 899.811656,95.2808052 899.811656,128.075636 C899.811656,156.799429 923.035867,178.06 948.514611,178.06 C972.415601,178.06 997.217566,159.061117 997.217566,126.718623 C997.217566,94.1496104 969.709183,76.7342597 948.514611,76.7342597 L948.514611,76.7342597 Z M844.11811,22 L859.901941,22 L859.901941,189.369143 L844.11811,189.369143 L844.11811,22 L844.11811,22 Z M755.502646,192.309688 C719.425917,192.309688 691.241453,161.775844 691.241453,128.302156 C691.241453,89.1738961 723.034009,62.4852727 755.502646,62.4852727 C792.030561,62.4852727 820.215025,93.4714545 820.215025,127.397481 C820.215025,161.097688 792.481048,192.309688 755.502646,192.309688 L755.502646,192.309688 Z M755.728239,76.7342597 C733.180109,76.7342597 707.025284,95.2808052 707.025284,128.075636 C707.025284,156.799429 730.249494,178.06 755.728239,178.06 C779.629229,178.06 804.431892,159.061117 804.431892,126.718623 C804.431892,94.1496104 776.923509,76.7342597 755.728239,76.7342597 L755.728239,76.7342597 Z M610.971535,237.997195 C593.384357,237.997195 559.111674,231.21213 547.83691,192.536208 L564.522415,192.536208 C568.580994,202.714156 580.756733,223.748208 610.745243,223.748208 C631.489327,223.748208 655.390317,211.760909 655.390317,177.608364 L655.390317,166.75226 L654.939131,166.75226 C645.694007,184.39413 625.401109,192.309688 607.362744,192.309688 C574.894108,192.309688 542.87526,166.978078 542.87526,128.076338 C542.87526,88.7222597 574.893409,62.485974 607.362744,62.485974 C618.636809,62.485974 640.733753,65.8788571 654.939131,87.8175844 L655.390317,87.8175844 L655.390317,65.6516364 L671.174148,65.6516364 L671.174148,169.917922 C671.174148,183.262234 671.174148,199.999429 659.900083,215.15239 C644.341845,236.866 615.931788,237.997195 610.971535,237.997195 L610.971535,237.997195 Z M607.363443,76.7342597 C579.403873,76.7342597 558.659789,100.483039 558.659789,127.623299 C558.659789,154.53774 579.403873,178.06 607.363443,178.06 C640.057673,178.06 656.292689,148.657351 656.292689,127.623299 C656.292689,100.483039 635.097419,76.7342597 607.363443,76.7342597 L607.363443,76.7342597 Z M504.768892,167.656234 L504.317706,167.656234 C490.789108,188.01213 469.14335,192.308987 456.290832,192.308987 C417.508383,192.309688 390,162.680519 390,127.170961 C390,94.1496104 415.92993,62.4852727 456.290832,62.4852727 C469.593837,62.4852727 491.240294,66.7828312 504.317706,87.3645455 L504.768892,87.3645455 L504.768892,65.6516364 L520.552723,65.6516364 L520.552723,189.369143 L504.768892,189.369143 L504.768892,167.656234 L504.768892,167.656234 Z M456.290832,76.7342597 C429.233635,76.7342597 405.783831,96.412 405.783831,127.849818 C405.783831,155.443117 426.076729,178.060701 456.290832,178.060701 C482.897541,178.060701 505.670566,156.574312 505.670566,127.624 C505.670566,100.483039 484.700889,76.7342597 456.290832,76.7342597 L456.290832,76.7342597 Z" id="Shape" sketch:type="MSShapeGroup"></path>
            <path d="M222,38.1522996 L222,0 L334,0 L334,260 L222,260 L222,221.8477 C198.468638,245.417838 165.937242,260 130,260 C58.2029825,260 0,201.797017 0,130 C0,58.2029825 58.2029825,0 130,0 C165.937242,0 198.468638,14.5821623 222,38.1522996 L222,38.1522996 Z M222,38.1522996 L222,221.8477 C245.480637,198.328371 260,165.859775 260,130 C260,94.1402248 245.480637,61.6716285 222,38.1522996 L222,38.1522996 Z M130,182 C158.718807,182 182,158.718807 182,130 C182,101.281193 158.718807,78 130,78 C101.281193,78 78,101.281193 78,130 C78,158.718807 101.281193,182 130,182 Z" id="Path" sketch:type="MSShapeGroup"></path>
        </g>
    </g>
</svg>